<svg width="854" height="68" viewBox="0 0 854 68" fill="none" xmlns="http://www.w3.org/2000/svg">
<path d="M0.999756 32.7195C0.999756 32.7195 93.2998 -38.8081 196 32.7195" stroke="#C2CBDE" stroke-width="1.5" stroke-dasharray="5 5"/>
<path d="M181.219 39.4975C181.219 39.4975 200.334 45.024 202.156 38.7629C203.978 32.5019 202.611 26.0274 196.694 17.1574" stroke="#C2CBDE" stroke-width="1.5" stroke-dasharray="4 4"/>
<path d="M651 32.7195C651 32.7195 743.3 -38.8081 846 32.7195" stroke="#C2CBDE" stroke-width="1.5" stroke-dasharray="5 5"/>
<path d="M831.219 39.4975C831.219 39.4975 850.334 45.024 852.156 38.7629C853.978 32.5019 852.611 26.0274 846.694 17.1574" stroke="#C2CBDE" stroke-width="1.5" stroke-dasharray="4 4"/>
<path d="M331.481 35.257C331.481 35.257 423.781 106.785 526.481 35.257" stroke="#C2CBDE" stroke-width="1.5" stroke-dasharray="5 5"/>
<path d="M511.7 28.4745C511.7 28.4745 530.815 22.9482 532.637 29.2091C534.459 35.47 533.093 41.9443 527.176 50.8142" stroke="#C2CBDE" stroke-width="1.5" stroke-dasharray="4 4"/>
</svg>
