<svg width="20" height="21" viewBox="0 0 20 21" fill="none" xmlns="http://www.w3.org/2000/svg">
<path fill-rule="evenodd" clip-rule="evenodd" d="M9.99954 0.998535C4.48565 0.998535 -0.000427246 5.48455 -0.000427246 10.9985C-0.000427246 16.513 4.48565 20.9985 9.99954 20.9985C15.5134 20.9985 19.9996 16.513 19.9996 10.9985C19.9996 5.48455 15.5134 0.998535 9.99954 0.998535ZM15.5745 7.66357L9.4207 14.5867C9.26917 14.7571 9.05803 14.8442 8.84528 14.8442C8.67648 14.8442 8.50688 14.7888 8.36497 14.6759L4.51873 11.5991C4.18718 11.334 4.13341 10.8501 4.39878 10.5179C4.66384 10.1856 5.14838 10.1319 5.47992 10.3974L8.75567 13.0179L14.4245 6.64099C14.7061 6.32324 15.193 6.29422 15.5103 6.57702C15.828 6.85928 15.8569 7.34582 15.5745 7.66357Z" fill="#EA3A60"/>
</svg>
