<svg width="20" height="20" viewBox="0 0 20 20" fill="none" xmlns="http://www.w3.org/2000/svg">
<path fill-rule="evenodd" clip-rule="evenodd" d="M9.9999 -0.000976562C4.48602 -0.000976562 -6.10352e-05 4.48395 -6.10352e-05 9.99901C-6.10352e-05 15.513 4.48602 19.9985 9.9999 19.9985C15.5138 19.9985 20 15.513 20 9.99901C20 4.48395 15.5138 -0.000976562 9.9999 -0.000976562ZM15.5749 6.66406L9.42106 13.5872C9.26954 13.7571 9.0584 13.8447 8.84565 13.8447C8.67685 13.8447 8.50725 13.7893 8.36534 13.677L4.51909 10.5995C4.18755 10.3345 4.13378 9.85008 4.39915 9.51783C4.6642 9.18665 5.14874 9.13235 5.48029 9.39793L8.75604 12.0184L14.4249 5.64148C14.7065 5.3232 15.1933 5.2947 15.5107 5.57751C15.8284 5.85977 15.8572 6.34578 15.5749 6.66406Z" fill="#EA3A60"/>
</svg>
