<svg width="18" height="13" viewBox="0 0 18 13" fill="none" xmlns="http://www.w3.org/2000/svg">
<path fill-rule="evenodd" clip-rule="evenodd" d="M17.2914 4.77165C17.2942 4.82058 17.2905 4.87057 17.2781 4.91951L16.1678 9.32004C16.1119 9.54101 15.9113 9.69746 15.6808 9.69853L9.01907 9.73186C9.01825 9.73186 9.01735 9.73186 9.01655 9.73186H2.35483C2.12309 9.73186 1.92109 9.57596 1.86513 9.35283L0.754836 4.93617C0.742005 4.88563 0.738351 4.83402 0.741543 4.78349C0.312051 4.64961 -0.000366211 4.25177 -0.000366211 3.7824C-0.000366211 3.20283 0.475011 2.73188 1.05946 2.73188C1.64391 2.73188 2.11931 3.20283 2.11931 3.7824C2.11931 4.10822 1.96847 4.39961 1.73239 4.59263L3.12238 5.98026C3.47371 6.33026 3.96124 6.53241 4.45997 6.53241C5.04967 6.53241 5.61205 6.25445 5.96611 5.7894L8.2506 2.79047C8.05868 2.60015 7.93978 2.33832 7.93978 2.04854C7.93978 1.46951 8.41528 0.998535 8.9996 0.998535C9.58405 0.998535 10.0595 1.46951 10.0595 2.04854C10.0595 2.32973 9.94696 2.58456 9.7651 2.77328C9.76568 2.77434 9.76636 2.77488 9.76705 2.77596L12.0349 5.78294C12.3889 6.25176 12.9532 6.53241 13.5446 6.53241C14.0479 6.53241 14.5213 6.33725 14.8772 5.98455L16.276 4.60016C16.0349 4.4066 15.88 4.11198 15.88 3.7824C15.88 3.20283 16.3554 2.73188 16.9399 2.73188C17.5242 2.73188 17.9996 3.20283 17.9996 3.7824C17.9996 4.23833 17.7032 4.62704 17.2914 4.77165ZM16.0595 11.2991C16.0595 11.0227 15.8336 10.7985 15.5548 10.7985H2.50063C2.22185 10.7985 1.99594 11.0227 1.99594 11.2991V12.4985C1.99594 12.7749 2.22185 12.9985 2.50063 12.9985H15.5548C15.8336 12.9985 16.0595 12.7749 16.0595 12.4985V11.2991Z" fill="white"/>
</svg>
