<svg width="30" height="20" viewBox="0 0 30 20" fill="none" xmlns="http://www.w3.org/2000/svg">
<path fill-rule="evenodd" clip-rule="evenodd" d="M28.4326 6.28911C28.4372 6.37084 28.4312 6.45385 28.4108 6.53728L26.5851 13.8696C26.493 14.2386 26.1632 14.4988 25.7842 14.5009L14.8303 14.5564C14.8289 14.5564 14.8275 14.5564 14.826 14.5564H3.87208C3.49095 14.5564 3.15892 14.2953 3.06692 13.9242L1.24124 6.56393C1.22015 6.47878 1.21414 6.39319 1.21945 6.30933C0.513168 6.08614 -0.000488281 5.42252 -0.000488281 4.64065C-0.000488281 3.67515 0.781211 2.89025 1.74216 2.89025C2.70311 2.89025 3.48481 3.67515 3.48481 4.64065C3.48481 5.18382 3.23683 5.66982 2.84857 5.9915L5.13428 8.30358C5.71203 8.88804 6.5136 9.2235 7.33366 9.2235C8.30341 9.2235 9.22795 8.76075 9.81018 7.98617L13.5667 2.98831C13.2511 2.67178 13.0557 2.23439 13.0557 1.75186C13.0557 0.786768 13.8374 0.00146484 14.7983 0.00146484C15.7593 0.00146484 16.541 0.786768 16.541 1.75186C16.541 2.21978 16.356 2.64425 16.0569 2.95863C16.0579 2.95993 16.0592 2.96123 16.0601 2.96251L19.7893 7.97415C20.3713 8.75602 21.2991 9.2235 22.2716 9.2235C23.0993 9.2235 23.8776 8.89966 24.4628 8.31218L26.7629 6.00225C26.3665 5.681 26.1118 5.19072 26.1118 4.64065C26.1118 3.67515 26.8936 2.89025 27.8545 2.89025C28.8154 2.89025 29.5972 3.67515 29.5972 4.64065C29.5972 5.40145 29.1097 6.04913 28.4326 6.28911ZM26.4069 17.1669C26.4069 16.7072 26.0354 16.3339 25.5771 16.3339H4.11183C3.65353 16.3339 3.28195 16.7072 3.28195 17.1669V19.1668C3.28195 19.6274 3.65353 20.0003 4.11183 20.0003H25.5771C26.0354 20.0003 26.4069 19.6274 26.4069 19.1668V17.1669Z" fill="#02073E"/>
</svg>
