<svg width="20" height="21" viewBox="0 0 20 21" fill="none" xmlns="http://www.w3.org/2000/svg">
<path fill-rule="evenodd" clip-rule="evenodd" d="M9.9999 0.998535C4.48602 0.998535 -6.10352e-05 5.48455 -6.10352e-05 10.9985C-6.10352e-05 16.513 4.48602 20.9985 9.9999 20.9985C15.5138 20.9985 20 16.513 20 10.9985C20 5.48455 15.5138 0.998535 9.9999 0.998535ZM15.5749 7.66357L9.42106 14.5867C9.26954 14.7571 9.0584 14.8442 8.84565 14.8442C8.67685 14.8442 8.50725 14.7888 8.36534 14.6759L4.51909 11.5991C4.18755 11.334 4.13378 10.8501 4.39915 10.5179C4.6642 10.1856 5.14874 10.1319 5.48029 10.3974L8.75604 13.0179L14.4249 6.64099C14.7065 6.32324 15.1933 6.29422 15.5107 6.57702C15.8284 6.85928 15.8572 7.34582 15.5749 7.66357Z" fill="#EA3A60"/>
</svg>
