<svg width="20" height="20" viewBox="0 0 20 20" fill="none" xmlns="http://www.w3.org/2000/svg">
<path fill-rule="evenodd" clip-rule="evenodd" d="M9.99978 -0.000976562C4.4859 -0.000976562 -0.000183105 4.48395 -0.000183105 9.99901C-0.000183105 15.513 4.4859 19.9985 9.99978 19.9985C15.5137 19.9985 19.9999 15.513 19.9999 9.99901C19.9999 4.48395 15.5137 -0.000976562 9.99978 -0.000976562ZM15.5748 6.66406L9.42094 13.5872C9.26941 13.7571 9.05827 13.8447 8.84552 13.8447C8.67673 13.8447 8.50713 13.7893 8.36522 13.677L4.51897 10.5995C4.18743 10.3345 4.13365 9.85008 4.39903 9.51783C4.66408 9.18665 5.14862 9.13235 5.48016 9.39793L8.75592 12.0184L14.4248 5.64148C14.7064 5.3232 15.1932 5.2947 15.5106 5.57751C15.8283 5.85977 15.8571 6.34578 15.5748 6.66406Z" fill="#EA3A60"/>
</svg>
