<svg width="20" height="21" viewBox="0 0 20 21" fill="none" xmlns="http://www.w3.org/2000/svg">
<path fill-rule="evenodd" clip-rule="evenodd" d="M9.99978 0.998535C4.4859 0.998535 -0.000183105 5.48402 -0.000183105 10.9985C-0.000183105 16.5125 4.4859 20.9985 9.99978 20.9985C15.5137 20.9985 19.9999 16.5125 19.9999 10.9985C19.9999 5.48402 15.5137 0.998535 9.99978 0.998535ZM15.5748 7.66306L9.42094 14.5862C9.26941 14.7571 9.05827 14.8448 8.84552 14.8448C8.67673 14.8448 8.50713 14.7894 8.36522 14.6759L4.51897 11.5991C4.18743 11.334 4.13365 10.8501 4.39903 10.5179C4.66408 10.1856 5.14862 10.1324 5.48016 10.398L8.75592 13.0179L14.4248 6.64101C14.7064 6.32327 15.1932 6.29477 15.5106 6.57702C15.8283 6.85983 15.8571 7.34532 15.5748 7.66306Z" fill="#EA3A60"/>
</svg>
