<svg width="20" height="20" viewBox="0 0 20 20" fill="none" xmlns="http://www.w3.org/2000/svg">
<path fill-rule="evenodd" clip-rule="evenodd" d="M9.99954 -0.000976562C4.48565 -0.000976562 -0.000427246 4.48395 -0.000427246 9.99901C-0.000427246 15.513 4.48565 19.9985 9.99954 19.9985C15.5134 19.9985 19.9996 15.513 19.9996 9.99901C19.9996 4.48395 15.5134 -0.000976562 9.99954 -0.000976562ZM15.5745 6.66406L9.4207 13.5872C9.26917 13.7571 9.05803 13.8447 8.84528 13.8447C8.67648 13.8447 8.50688 13.7893 8.36497 13.677L4.51873 10.5995C4.18718 10.3345 4.13341 9.85008 4.39878 9.51783C4.66384 9.18665 5.14838 9.13235 5.47992 9.39793L8.75567 12.0184L14.4245 5.64148C14.7061 5.3232 15.193 5.2947 15.5103 5.57751C15.828 5.85977 15.8569 6.34578 15.5745 6.66406Z" fill="#EA3A60"/>
</svg>
