<svg width="20" height="21" viewBox="0 0 20 21" fill="none" xmlns="http://www.w3.org/2000/svg">
<path fill-rule="evenodd" clip-rule="evenodd" d="M9.99954 0.998535C4.48565 0.998535 -0.000427246 5.48347 -0.000427246 10.9985C-0.000427246 16.5125 4.48565 20.9985 9.99954 20.9985C15.5134 20.9985 19.9996 16.5125 19.9996 10.9985C19.9996 5.48347 15.5134 0.998535 9.99954 0.998535ZM15.5745 7.66304L9.4207 14.5867C9.26917 14.7566 9.05803 14.8442 8.84528 14.8442C8.67648 14.8442 8.50688 14.7894 8.36497 14.6759L4.51873 11.5991C4.18718 11.334 4.13341 10.8496 4.39878 10.5173C4.66384 10.1856 5.14838 10.1324 5.47992 10.3975L8.75567 13.0179L14.4245 6.64101C14.7061 6.32271 15.193 6.29424 15.5103 6.5765C15.828 6.85981 15.8569 7.34585 15.5745 7.66304Z" fill="#EA3A60"/>
</svg>
