<svg width="1250" height="373" viewBox="0 0 1250 373" fill="none" xmlns="http://www.w3.org/2000/svg">
<mask id="mask0_1_414" style="mask-type:alpha" maskUnits="userSpaceOnUse" x="0" y="0" width="1250" height="373">
<path fill-rule="evenodd" clip-rule="evenodd" d="M0 10.0171C0 4.49423 4.47715 0.0170898 10 0.0170898H1240C1245.52 0.0170898 1250 4.49424 1250 10.0171V362.017C1250 367.54 1245.52 372.017 1240 372.017H10C4.47717 372.017 0 367.54 0 362.017V10.0171Z" fill="#EA3A60"/>
</mask>
<g mask="url(#mask0_1_414)">
<g opacity="0.1">
<path d="M1265.9 158.06C1249.1 158.471 1249.13 126.168 1213.63 96.7217C1174.16 63.9979 1138.07 74.1486 1130.49 51.539C1123.32 30.2111 1147.83 -3.2307 1176.44 -13.8076C1224.6 -31.5856 1291.84 12.6592 1302.87 67.0154C1311.44 109.128 1286.33 157.542 1265.9 158.06Z" fill="white"/>
<path d="M-16.6777 158.061C0.116027 158.471 0.0910468 126.168 35.5904 96.722C75.0602 63.9982 111.15 74.1489 118.733 51.5392C125.896 30.2114 101.388 -3.23045 72.7762 -13.8074C24.6166 -31.5854 -42.6214 12.6594 -53.654 67.0157C-62.2161 109.128 -37.1053 157.542 -16.6777 158.061Z" fill="white"/>
<path d="M1265.9 213.463C1249.1 213.052 1249.13 245.355 1213.63 274.801C1174.16 307.525 1138.07 297.375 1130.48 319.984C1123.32 341.312 1147.83 374.754 1176.44 385.331C1224.6 403.109 1291.84 358.864 1302.87 304.508C1311.43 262.395 1286.32 213.981 1265.9 213.463Z" fill="white"/>
<path d="M-16.6777 213.463C0.116027 213.052 0.0910468 245.355 35.5904 274.801C75.0602 307.525 111.15 297.375 118.733 319.984C125.896 341.312 101.388 374.754 72.7762 385.331C24.6166 403.109 -42.6214 358.864 -53.654 304.508C-62.2161 262.395 -37.1053 213.981 -16.6777 213.463Z" fill="white"/>
</g>
</g>
</svg>
