<svg width="1920" height="700" viewBox="0 0 1920 700" fill="none" xmlns="http://www.w3.org/2000/svg">
<mask id="mask0_1_163" style="mask-type:alpha" maskUnits="userSpaceOnUse" x="0" y="0" width="1920" height="701">
<rect y="0.000488281" width="1920" height="700" fill="#EA3A60"/>
</mask>
<g mask="url(#mask0_1_163)">
<g opacity="0.1">
<path d="M1335.91 225.788C1304.98 226.545 1305.02 167.039 1239.63 112.797C1166.93 52.5166 1100.45 71.2151 1086.48 29.5661C1073.28 -9.7216 1118.43 -71.3243 1171.13 -90.808C1259.85 -123.556 1383.7 -42.0539 1404.03 58.0751C1419.8 135.65 1373.54 224.833 1335.91 225.788Z" fill="white"/>
<path d="M-1.70041 423.788C29.235 424.545 29.189 365.039 94.5819 310.797C167.289 250.517 233.769 269.215 247.738 227.566C260.932 188.278 215.786 126.676 163.081 107.192C74.3673 74.4435 -49.491 155.946 -69.814 256.075C-85.5862 333.65 -39.3299 422.833 -1.70041 423.788Z" fill="white"/>
<path d="M1945.91 269.731C1914.98 268.974 1915.02 328.48 1849.63 382.722C1776.93 443.002 1710.45 424.304 1696.48 465.953C1683.28 505.241 1728.43 566.843 1781.13 586.327C1869.85 619.075 1993.7 537.573 2014.03 437.444C2029.8 359.868 1983.54 270.686 1945.91 269.731Z" fill="white"/>
<path d="M612.3 533.731C643.235 532.974 643.189 592.48 708.582 646.722C781.289 707.002 847.769 688.304 861.738 729.953C874.932 769.24 829.786 830.843 777.081 850.327C688.367 883.075 564.509 801.573 544.186 701.444C528.414 623.868 574.67 534.686 612.3 533.731Z" fill="white"/>
</g>
</g>
</svg>
