<svg width="2005" height="1056" viewBox="0 0 2005 1056" fill="none" xmlns="http://www.w3.org/2000/svg">
<path d="M44.9999 5.99964C44.9999 5.99964 127.5 -26.4914 225 64.9996C290.4 126.366 291 169.1 314.261 273.148C342.761 400.636 429.579 590.162 646 499C761.884 450.186 752.1 582.652 683 714C639.206 797.24 549.141 888.367 526 906C367.217 1026.99 132.333 1014.28 43.9999 991C-43.9941 967.809 24.0069 10.4996 44.9999 5.99964Z" fill="#0898E7"/>
<path d="M1972 246C1972 246 1664.42 162.563 1439 455C1334.82 590.158 1312.5 679.01 1317 823C1323.75 1038.96 1357.92 1091.71 1534 1033C1628.47 1001.5 1729 963.999 1729 963.999C1785 941.999 1946.01 902.08 1973 907C1999.99 911.92 2027.48 247.5 1972 246Z" fill="#FAAE1B"/>
</svg>
