<svg width="80" height="19" viewBox="0 0 80 19" fill="none" xmlns="http://www.w3.org/2000/svg">
<path fill-rule="evenodd" clip-rule="evenodd" d="M79.6499 9.2349L72.5149 2.31556C72.0796 1.89351 71.3735 1.89351 70.9383 2.31556C70.5028 2.73814 70.5028 3.42254 70.9383 3.84458L76.1701 8.91823H42.1148C41.4992 8.91823 41 9.4021 41 9.99942C41 10.5962 41.4992 11.0806 42.1148 11.0806H76.1701L70.9384 16.1542C70.5029 16.5758 70.5029 17.2607 70.9384 17.6827C71.156 17.8935 71.4415 17.9989 71.7268 17.9989C72.0121 17.9989 72.2974 17.8935 72.515 17.6827L79.6499 10.7634C80.0853 10.3419 80.0853 9.65695 79.6499 9.2349Z" fill="#0F2137"/>
<path fill-rule="evenodd" clip-rule="evenodd" d="M2.35008 9.23482L9.48499 2.31547C9.92034 1.89343 10.6263 1.89343 11.0617 2.31547C11.4971 2.73805 11.4971 3.42245 11.0617 3.8445L5.82987 8.91814H24.8851C25.5008 8.91814 26 9.40202 26 9.99934C26 10.5961 25.5008 11.0805 24.8851 11.0805H5.82987L11.0615 16.1542C11.4969 16.5757 11.4969 17.2606 11.0615 17.6827C10.8438 17.8934 10.5585 17.9988 10.2731 17.9988C9.98787 17.9988 9.70256 17.8934 9.48488 17.6827L2.35008 10.7633C1.91462 10.3418 1.91462 9.65686 2.35008 9.23482Z" fill="#BBC7D7"/>
</svg>
