<svg width="20" height="90" viewBox="0 0 20 90" fill="none" xmlns="http://www.w3.org/2000/svg">
<g clip-path="url(#clip0_1_308)">
<path d="M14.999 0.00416129L12.4055 0C9.49179 0 7.6088 1.93188 7.6088 4.92198V7.19134H5.00113C4.7758 7.19134 4.59332 7.37402 4.59332 7.59935V10.8874C4.59332 11.1127 4.776 11.2952 5.00113 11.2952H7.6088V19.592C7.6088 19.8173 7.79127 19.9998 8.01661 19.9998H11.4189C11.6442 19.9998 11.8267 19.8171 11.8267 19.592V11.2952H14.8757C15.101 11.2952 15.2835 11.1127 15.2835 10.8874L15.2847 7.59935C15.2847 7.49116 15.2416 7.38754 15.1653 7.31097C15.0889 7.23441 14.9849 7.19134 14.8767 7.19134H11.8267V5.26757C11.8267 4.34293 12.047 3.87354 13.2515 3.87354L14.9986 3.87291C15.2238 3.87291 15.4062 3.69023 15.4062 3.46511V0.411968C15.4062 0.18705 15.224 0.00457742 14.999 0.00416129Z" fill="#EA3A60"/>
</g>
<g clip-path="url(#clip1_1_308)">
<path d="M20 38.7988C19.2563 39.125 18.4637 39.3412 17.6375 39.4462C18.4875 38.9388 19.1363 38.1412 19.4412 37.18C18.6488 37.6525 17.7738 37.9863 16.8412 38.1725C16.0887 37.3713 15.0162 36.875 13.8462 36.875C11.5763 36.875 9.74875 38.7175 9.74875 40.9763C9.74875 41.3012 9.77625 41.6137 9.84375 41.9112C6.435 41.745 3.41875 40.1113 1.3925 37.6225C1.03875 38.2363 0.83125 38.9388 0.83125 39.695C0.83125 41.115 1.5625 42.3737 2.6525 43.1025C1.99375 43.09 1.3475 42.8988 0.8 42.5975C0.8 42.61 0.8 42.6262 0.8 42.6425C0.8 44.635 2.22125 46.29 4.085 46.6712C3.75125 46.7625 3.3875 46.8062 3.01 46.8062C2.7475 46.8062 2.4825 46.7913 2.23375 46.7362C2.765 48.36 4.2725 49.5538 6.065 49.5925C4.67 50.6838 2.89875 51.3412 0.98125 51.3412C0.645 51.3412 0.3225 51.3263 0 51.285C1.81625 52.4563 3.96875 53.125 6.29 53.125C13.835 53.125 17.96 46.875 17.96 41.4575C17.96 41.2762 17.9538 41.1013 17.945 40.9275C18.7588 40.35 19.4425 39.6288 20 38.7988Z" fill="#EA3A60"/>
</g>
<g clip-path="url(#clip2_1_308)">
<path d="M14.4805 70H5.51913C2.47588 70 0 72.476 0 75.5192V84.4806C0 87.524 2.47588 89.9999 5.51913 89.9999H14.4805C17.524 89.9999 19.9999 87.5239 19.9999 84.4806V75.5192C20 72.476 17.524 70 14.4805 70ZM18.2255 84.4806C18.2255 86.5455 16.5455 88.2254 14.4806 88.2254H5.51913C3.45433 88.2255 1.77449 86.5455 1.77449 84.4806V75.5192C1.77449 73.4545 3.45433 71.7745 5.51913 71.7745H14.4805C16.5454 71.7745 18.2254 73.4545 18.2254 75.5192V84.4806H18.2255Z" fill="#EA3A60"/>
<path d="M10.0001 74.8467C7.15848 74.8467 4.84668 77.1585 4.84668 80.0001C4.84668 82.8417 7.15848 85.1534 10.0001 85.1534C12.8418 85.1534 15.1536 82.8417 15.1536 80.0001C15.1536 77.1585 12.8418 74.8467 10.0001 74.8467ZM10.0001 83.3788C8.13705 83.3788 6.62117 81.8631 6.62117 80C6.62117 78.1368 8.13693 76.621 10.0001 76.621C11.8634 76.621 13.3791 78.1368 13.3791 80C13.3791 81.8631 11.8632 83.3788 10.0001 83.3788Z" fill="#EA3A60"/>
<path d="M15.3696 73.342C15.0277 73.342 14.6919 73.4805 14.4504 73.723C14.2078 73.9643 14.0683 74.3003 14.0683 74.6433C14.0683 74.9853 14.2079 75.3212 14.4504 75.5637C14.6918 75.805 15.0277 75.9446 15.3696 75.9446C15.7127 75.9446 16.0475 75.805 16.29 75.5637C16.5325 75.3212 16.6709 74.9852 16.6709 74.6433C16.6709 74.3003 16.5325 73.9643 16.29 73.723C16.0487 73.4805 15.7127 73.342 15.3696 73.342Z" fill="#EA3A60"/>
</g>
<defs>
<clipPath id="clip0_1_308">
<rect width="20" height="19.9998" fill="white"/>
</clipPath>
<clipPath id="clip1_1_308">
<rect width="20" height="20" fill="white" transform="translate(0 35)"/>
</clipPath>
<clipPath id="clip2_1_308">
<rect width="20" height="20" fill="white" transform="translate(0 70)"/>
</clipPath>
</defs>
</svg>
